# File produced by Open Asset Import Library (http://www.assimp.sf.net)
# (assimp v3.1.243586452)

mtllib CEILING.mtl

# vertex positions
v -40.022488 -0.100000 -70.114975
v -40.009865 -0.100000 -90.099998
v 60.000000 -0.100000 -90.099998
v 60.000000 -0.100000 9.900002
v -100.000008 -0.100000 9.900002
v -100.000008 -0.100000 -70.075333
v 59.899994 79.836151 80.200005
v 59.899994 79.836151 -20.100002
v 120.157272 79.836151 -20.100002
v 120.157272 79.836151 52.534634
v 120.157272 79.836151 66.897079
v 120.157272 79.836151 80.200012
v 99.999985 79.836151 -90.300003
v 99.999985 79.836151 -50.300003
v 59.999985 79.836151 -50.300003
v 59.999985 79.836151 -73.289925
v 59.999985 79.836151 -87.495216
v 59.999985 79.836151 -90.300003
v -20.099997 79.836151 -50.300003
v -20.099997 79.836151 -100.300003
v 59.900002 79.836151 -100.300003
v 59.900002 79.836151 -73.061676
v 59.900002 79.836151 -50.300003
v 7.183054 79.836151 -50.300003
v 59.900002 79.836151 -87.617149
v -7.250349 79.836151 -50.300003
v -20.100000 79.836151 -20.099998
v -20.100000 79.836151 -50.099998
v -7.379936 79.836151 -50.099998
v 6.979179 79.836151 -50.099998
v 89.899994 79.836151 -50.099998
v 89.899994 79.836151 -20.099998
v 59.899998 79.836151 -20.099998
v 22.269375 79.836151 -20.099998
v 7.667793 79.836151 -20.099998
v -0.200005 79.836151 70.200005
v -0.200005 79.836151 -19.799999
v 7.805244 79.836151 -19.799999
v 22.082012 79.836151 -19.799999
v 59.799999 79.836151 -19.799999
v 59.799999 79.836151 70.200005
v -100.100006 39.799999 0.000000
v -100.100006 39.799999 -90.000008
v -97.265327 39.799999 -90.000008
v -82.900002 39.799999 -90.000008
v -30.100006 39.799999 -90.000008
v -30.100006 39.799999 -7.627754
v -30.100006 39.799999 0.000000
v -77.698067 39.799999 0.000000
v -30.100006 39.799999 -22.243530
v -92.279755 39.799999 0.000000
v -110.100006 39.744244 70.099937
v -110.100006 39.833439 0.099930
v -92.399948 39.833439 0.099930
v -77.735245 39.833439 0.099930
v -20.100006 39.833439 0.099930
v -20.100006 39.798065 27.860023
v -20.100006 39.779686 42.283775
v -20.100006 39.744244 70.099937
v -20.000000 39.799999 -30.100002
v -20.000000 39.799999 -80.100006
v 60.000000 39.799999 -80.100006
v 60.000000 39.799999 -52.861675
v 60.000000 39.799999 -30.100002
v 7.283051 39.799999 -30.100002
v 60.000000 39.799999 -67.417152
v -7.150357 39.799999 -30.100002
v 100.099991 39.799999 -70.100006
v 100.099991 39.799999 -30.100002
v 60.099991 39.799999 -30.100002
v 60.099991 39.799999 -53.089931
v 60.099991 39.799999 -67.295219
v 60.099991 39.799999 -70.100006
v -30.000000 39.799999 -22.310188
v -30.000000 39.799999 -30.000002
v -7.097229 39.799999 -30.000002
v 7.355415 39.799999 -30.000002
v 89.084175 39.948986 -30.000002
v 90.000008 39.948986 0.000000
v 62.353600 39.799999 0.000000
v 47.826561 39.799999 0.000000
v 7.303108 39.799999 0.000000
v -7.195160 39.799999 0.000000
v -30.000000 39.799999 -7.657284
v -30.000000 39.799999 0.000000
v 120.000000 39.725506 -30.000000
v 120.000000 39.725506 0.000000
v 112.323303 39.725506 0.000000
v 97.687279 39.725506 0.000000
v 30.000000 39.799999 60.099937
v 30.000000 39.799999 0.099930
v 47.745293 39.799999 0.099930
v 62.214378 39.799999 0.099930
v 80.000008 39.799999 0.099930
v 80.000008 39.799999 60.099937
v -20.000000 39.799999 27.795090
v -20.000000 39.799999 0.099930
v -7.204163 39.799999 0.099930
v -20.000000 39.799999 42.156090
v -20.000000 39.799999 60.099937
v 7.136124 39.799999 0.099930
v 20.000000 39.799999 0.099930
v 20.000000 39.799999 60.099937
v 7.127403 39.799999 60.099937
v -7.279331 39.799999 60.099937
v -40.000000 -15.360283 -87.160477
v -40.000000 -40.000000 -87.210976
v -40.000000 -40.000000 -90.099998
v -40.000000 0.000000 -90.099998
v -40.000000 0.000000 -70.099998
v -40.000000 -40.000000 -70.099998
v -40.000000 -40.000000 -72.556564
v -40.000000 -15.333572 -72.678886
v -77.985085 -15.372486 -70.099998
v -77.900398 -40.000000 -70.099998
v -100.000008 0.000000 -70.099998
v -92.288895 -15.376930 -70.099998
v -100.000008 -40.000000 -70.099998
v -92.226776 -40.000000 -70.099998

# UV coordinates
vt 0.280924 0.103102
vt 0.308678 0.053162
vt 0.558675 0.191896
vt 0.419955 0.441868
vt 0.020000 0.219916
vt 0.130942 0.020000
vt 0.020000 0.693890
vt 0.044464 0.979585
vt 0.216101 0.964888
vt 0.198385 0.757995
vt 0.194882 0.717085
vt 0.191637 0.679193
vt 0.565555 0.679550
vt 0.565555 0.565197
vt 0.451201 0.565197
vt 0.451201 0.630921
vt 0.451201 0.671532
vt 0.451201 0.679550
vt 0.726990 0.773363
vt 0.699018 0.913541
vt 0.923303 0.958296
vt 0.938541 0.881931
vt 0.951274 0.818118
vt 0.803479 0.788626
vt 0.930398 0.922738
vt 0.763014 0.780552
vt 0.696962 0.020000
vt 0.654411 0.094465
vt 0.685984 0.112507
vt 0.721626 0.132873
vt 0.927449 0.250486
vt 0.970000 0.176021
vt 0.895535 0.133470
vt 0.802130 0.080096
vt 0.765886 0.059385
vt 0.233123 0.727702
vt 0.283582 0.980000
vt 0.306023 0.975512
vt 0.346046 0.967507
vt 0.451781 0.946360
vt 0.401321 0.694062
vt 0.480939 0.715914
vt 0.489917 0.973052
vt 0.498016 0.972769
vt 0.539059 0.971336
vt 0.689913 0.966069
vt 0.681696 0.730724
vt 0.680936 0.708931
vt 0.544944 0.713679
vt 0.683154 0.772482
vt 0.503283 0.715133
vt 0.699839 0.347118
vt 0.684149 0.546621
vt 0.734595 0.550588
vt 0.776390 0.553875
vt 0.940652 0.566793
vt 0.946874 0.487676
vt 0.950107 0.446568
vt 0.956342 0.367291
vt 0.731946 0.589979
vt 0.703974 0.730157
vt 0.928259 0.774911
vt 0.943497 0.698547
vt 0.956231 0.634733
vt 0.808436 0.605242
vt 0.935354 0.739354
vt 0.767971 0.597167
vt 0.134353 0.421821
vt 0.134353 0.307468
vt 0.020000 0.307468
vt 0.020000 0.373192
vt 0.020000 0.413802
vt 0.020000 0.421821
vt 0.452819 0.074382
vt 0.441289 0.093126
vt 0.497115 0.127467
vt 0.532344 0.149138
vt 0.731560 0.271682
vt 0.778775 0.199930
vt 0.711386 0.158476
vt 0.675976 0.136694
vt 0.577199 0.075933
vt 0.541859 0.054194
vt 0.474790 0.038665
vt 0.486271 0.020000
vt 0.806919 0.318040
vt 0.851908 0.244918
vt 0.833197 0.233406
vt 0.797523 0.211457
vt 0.490852 0.355103
vt 0.506382 0.525929
vt 0.556904 0.521336
vt 0.598099 0.517591
vt 0.648736 0.512987
vt 0.633207 0.342162
vt 0.291907 0.589206
vt 0.299812 0.667986
vt 0.336210 0.664333
vt 0.287808 0.548355
vt 0.282686 0.497313
vt 0.377002 0.660240
vt 0.413594 0.656568
vt 0.396468 0.485896
vt 0.359851 0.489570
vt 0.318870 0.493682
vt 0.240303 0.605900
vt 0.240447 0.535459
vt 0.248706 0.535459
vt 0.248707 0.649812
vt 0.191530 0.649813
vt 0.191530 0.535459
vt 0.198553 0.535459
vt 0.198902 0.605976
vt 0.082937 0.605865
vt 0.083179 0.535459
vt 0.020000 0.649812
vt 0.042045 0.605852
vt 0.020000 0.535459
vt 0.042223 0.535459

# vertex normals
vn 0.000000 -1.000000 -0.000000
vn 0.000000 -0.999999 -0.001274
vn 0.000297 -1.000000 0.000028
vn 0.001705 -0.999964 0.008283
vn -0.002103 -0.999997 -0.000699
vn -0.006501 -0.999964 -0.005427
vn 0.001446 -0.999992 -0.003678
vn 0.000000 -0.999988 -0.004966
vn 0.000809 -0.999998 -0.001909
vn -0.006314 -0.999978 -0.001898
vn -0.020442 -0.999675 -0.015204
vn 1.000000 0.000000 0.000000
vn 0.000000 -0.000000 1.000000

# Mesh
g Basement002
usemtl DefaultMaterial
f 1/1/1 2/2/1 3/3/1
f 1/1/1 3/3/1 4/4/1
f 1/1/1 4/4/1 5/5/1
f 1/1/1 5/5/1 6/6/1

# Mesh
g CEILING
usemtl DefaultMaterial
f 12/12/1 7/7/1 8/8/1
f 12/12/1 8/8/1 9/9/1
f 9/9/1 10/10/1 11/11/1
f 9/9/1 11/11/1 12/12/1

# Mesh
g CEILING
usemtl DefaultMaterial
f 18/18/1 13/13/1 14/14/1
f 18/18/1 14/14/1 15/15/1
f 18/18/1 15/15/1 16/16/1
f 16/16/1 17/17/1 18/18/1

# Mesh
g CEILING
usemtl DefaultMaterial
f 19/19/1 20/20/1 21/21/1
f 22/22/1 23/23/1 24/24/1
f 25/25/1 22/22/1 24/24/1
f 21/21/1 25/25/1 24/24/1
f 21/21/1 24/24/1 26/26/1
f 19/19/1 21/21/1 26/26/1

# Mesh
g CEILING
usemtl DefaultMaterial
f 27/27/1 28/28/1 29/29/1
f 27/27/1 29/29/1 30/30/1
f 27/27/1 30/30/1 31/31/1
f 31/31/1 32/32/1 33/33/1
f 31/31/1 33/33/1 34/34/1
f 31/31/1 34/34/1 35/35/1
f 27/27/1 31/31/1 35/35/1

# Mesh
g CEILING
usemtl DefaultMaterial
f 41/41/1 36/36/1 37/37/1
f 41/41/1 37/37/1 38/38/1
f 41/41/1 38/38/1 39/39/1
f 39/39/1 40/40/1 41/41/1

# Mesh
g CEILING
usemtl DefaultMaterial
f 42/42/1 43/43/1 44/44/1
f 42/42/1 44/44/1 45/45/1
f 42/42/1 45/45/1 46/46/1
f 47/47/1 48/48/1 49/49/1
f 50/50/1 47/47/1 49/49/1
f 46/46/1 50/50/1 49/49/1
f 46/46/1 49/49/1 51/51/1
f 42/42/1 46/46/1 51/51/1

# Mesh
g CEILING
usemtl DefaultMaterial
f 59/59/2 52/52/2 53/53/2
f 59/59/2 53/53/2 54/54/2
f 59/59/2 54/54/2 55/55/2
f 59/59/2 55/55/2 56/56/2
f 59/59/2 56/56/2 57/57/2
f 57/57/2 58/58/2 59/59/2

# Mesh
g CEILING
usemtl DefaultMaterial
f 60/60/1 61/61/1 62/62/1
f 63/63/1 64/64/1 65/65/1
f 66/66/1 63/63/1 65/65/1
f 62/62/1 66/66/1 65/65/1
f 62/62/1 65/65/1 67/67/1
f 60/60/1 62/62/1 67/67/1

# Mesh
g CEILING
usemtl DefaultMaterial
f 73/73/1 68/68/1 69/69/1
f 73/73/1 69/69/1 70/70/1
f 70/70/1 71/71/1 72/72/1
f 70/70/1 72/72/1 73/73/1

# Mesh
g CEILING
usemtl DefaultMaterial
f 74/74/3 75/75/1 76/76/1
f 74/74/3 76/76/1 77/77/4
f 74/74/3 77/77/4 78/78/5
f 78/78/5 79/79/6 80/80/7
f 78/78/5 80/80/7 81/81/8
f 78/78/5 81/81/8 82/82/9
f 74/74/3 78/78/5 82/82/9
f 74/74/3 82/82/9 83/83/1
f 84/84/1 74/74/3 83/83/1
f 85/85/1 84/84/1 83/83/1
f 79/79/6 78/78/5 86/86/10
f 86/86/10 87/87/1 88/88/1
f 86/86/10 88/88/1 89/89/11
f 79/79/6 86/86/10 89/89/11

# Mesh
g CEILING
usemtl DefaultMaterial
f 95/95/1 90/90/1 91/91/1
f 95/95/1 91/91/1 92/92/1
f 95/95/1 92/92/1 93/93/1
f 93/93/1 94/94/1 95/95/1

# Mesh
g CEILING
usemtl DefaultMaterial
f 96/96/1 97/97/1 98/98/1
f 99/99/1 96/96/1 98/98/1
f 100/100/1 99/99/1 98/98/1
f 100/100/1 98/98/1 101/101/1
f 100/100/1 101/101/1 102/102/1
f 102/102/1 103/103/1 104/104/1
f 102/102/1 104/104/1 105/105/1
f 100/100/1 102/102/1 105/105/1

# Mesh
g WALLFIX
usemtl DefaultMaterial
f 106/106/12 107/107/12 108/108/12
f 106/106/12 108/108/12 109/109/12
f 106/106/12 109/109/12 110/110/12
f 111/111/12 112/112/12 113/113/12
f 110/110/12 111/111/12 113/113/12
f 106/106/12 110/110/12 113/113/12
f 114/114/13 115/115/13 111/111/13
f 114/114/13 111/111/13 110/110/13
f 114/114/13 110/110/13 116/116/13
f 117/117/13 114/114/13 116/116/13
f 117/117/13 116/116/13 118/118/13
f 117/117/13 118/118/13 119/119/13
f 115/115/13 114/114/13 117/117/13
f 117/117/13 119/119/13 115/115/13
