# File produced by Open Asset Import Library (http://www.assimp.sf.net)
# (assimp v3.1.243586452)

mtllib SMALL_WINDOW.mtl

# vertex positions
v -42.249981 25.000000 70.500000
v -29.749981 25.000000 70.500000
v -29.749981 25.000000 69.500000
v -42.249981 25.000000 69.500000
v -29.749981 7.500000 70.500000
v -29.749981 7.500000 69.500000
v -30.499981 8.250000 70.000000
v -41.499981 8.250000 70.000000
v -41.499981 24.250000 70.000000
v -30.499981 24.250000 70.000000
v -42.249981 7.500000 69.500000
v -42.249981 7.500000 70.500000
v -41.499981 8.250000 69.500000
v -30.499981 8.250000 69.500000
v -41.499981 24.250000 69.500000
v -30.499981 24.250000 69.500000
v -42.750000 7.000000 71.000000
v -42.750000 7.000000 69.000000
v -29.250000 7.000000 69.000000
v -29.250000 7.000000 71.000000
v -42.750000 7.750000 71.000000
v -29.250000 7.750000 71.000000
v -29.250000 7.750000 69.000000
v -42.750000 7.750000 69.000000
v -38.849998 8.250000 70.250000
v -38.849998 8.250000 69.750000
v -38.849998 24.250000 69.750000
v -38.849998 24.250000 70.250000
v -39.150002 8.250000 69.750000
v -39.150002 24.250000 69.750000
v -39.150002 8.250000 70.250000
v -39.150002 24.250000 70.250000
v -41.500000 16.000000 70.199997
v -41.500000 16.000000 69.699997
v -30.500000 16.000000 69.699997
v -30.500000 16.000000 70.199997
v -41.500000 16.299999 70.199997
v -30.500000 16.299999 70.199997
v -30.500000 16.299999 69.699997
v -41.500000 16.299999 69.699997
v -41.500000 21.250000 70.199997
v -41.500000 21.250000 69.699997
v -30.500000 21.250000 69.699997
v -30.500000 21.250000 70.199997
v -41.500000 21.549999 70.199997
v -30.500000 21.549999 70.199997
v -30.500000 21.549999 69.699997
v -41.500000 21.549999 69.699997
v -32.849998 8.250000 70.250000
v -32.849998 8.250000 69.750000
v -32.849998 24.250000 69.750000
v -32.849998 24.250000 70.250000
v -33.150002 8.250000 69.750000
v -33.150002 24.250000 69.750000
v -33.150002 8.250000 70.250000
v -33.150002 24.250000 70.250000
v -41.500000 10.750000 70.199997
v -41.500000 10.750000 69.699997
v -30.500000 10.750000 69.699997
v -30.500000 10.750000 70.199997
v -41.500000 11.049999 70.199997
v -30.500000 11.049999 70.199997
v -30.500000 11.049999 69.699997
v -41.500000 11.049999 69.699997

# UV coordinates
vt 0.728894 0.724881
vt 0.414840 0.835745
vt 0.405971 0.810621
vt 0.720025 0.699757
vt 0.039581 0.395387
vt 0.064934 0.375434
vt 0.414113 0.819105
vt 0.388761 0.839058
vt 0.115609 0.366505
vt 0.561644 0.158310
vt 0.676893 0.679556
vt 0.423297 0.765697
vt 0.597827 0.124251
vt 0.631132 0.116986
vt 0.758262 0.699831
vt 0.724957 0.707096
vt 0.061539 0.330015
vt 0.568396 0.093430
vt 0.552180 0.138036
vt 0.106146 0.346231
vt 0.694530 0.687565
vt 0.578296 0.154678
vt 0.418163 0.785126
vt 0.098913 0.379484
vt 0.397290 0.980000
vt 0.397288 0.898798
vt 0.945403 0.898798
vt 0.945403 0.980000
vt 0.362208 0.977179
vt 0.031278 0.726981
vt 0.102289 0.693831
vt 0.371583 0.911230
vt 0.020000 0.696256
vt 0.101935 0.666182
vt 0.085694 0.798355
vt 0.085694 0.931621
vt 0.073848 0.931621
vt 0.073848 0.798355
vt 0.020000 0.136726
vt 0.020000 0.120073
vt 0.386351 0.120073
vt 0.386351 0.136726
vt 0.020000 0.093430
vt 0.386351 0.093430
vt 0.386351 0.110082
vt 0.020000 0.110082
vt 0.020000 0.063296
vt 0.020000 0.046644
vt 0.386351 0.046644
vt 0.386351 0.063296
vt 0.020000 0.020000
vt 0.386351 0.020000
vt 0.386351 0.036652
vt 0.020000 0.036652
vt 0.031846 0.759193
vt 0.031846 0.892459
vt 0.020000 0.892459
vt 0.020000 0.759193
vt 0.426311 0.063296
vt 0.426311 0.046644
vt 0.792662 0.046644
vt 0.792662 0.063296
vt 0.426311 0.020000
vt 0.792662 0.020000
vt 0.792662 0.036652
vt 0.426311 0.036652

# vertex normals
vn 0.000000 1.000000 0.000000
vn 1.000000 0.000000 0.000000
vn 0.000000 0.000000 -1.000000
vn -1.000000 0.000000 0.000000
vn 0.000000 -1.000000 -0.000000

# Mesh
g Window_Small
usemtl DefaultMaterial
f 4/4/1 1/1/1 2/2/1
f 2/2/1 3/3/1 4/4/1
f 2/8/2 5/5/2 6/6/2
f 6/6/2 3/7/2 2/8/2
f 10/12/3 7/9/3 8/10/3
f 8/10/3 9/11/3 10/12/3
f 4/16/4 11/13/4 12/14/4
f 12/14/4 1/15/4 4/16/4
f 14/20/3 6/17/3 11/18/3
f 11/18/3 13/19/3 14/20/3
f 13/22/3 11/13/3 4/16/3
f 4/16/3 15/21/3 13/22/3
f 15/21/3 4/4/3 3/3/3
f 3/3/3 16/23/3 15/21/3
f 16/23/3 3/7/3 6/6/3
f 6/6/3 14/24/3 16/23/3
f 7/9/1 14/20/1 13/19/1
f 13/19/1 8/10/1 7/9/1
f 8/10/2 13/22/2 15/21/2
f 15/21/2 9/11/2 8/10/2
f 9/11/5 15/21/5 16/23/5
f 16/23/5 10/12/5 9/11/5
f 10/12/4 16/23/4 14/24/4
f 14/24/4 7/9/4 10/12/4
f 20/28/5 17/25/5 18/26/5
f 18/26/5 19/27/5 20/28/5
f 24/32/1 21/29/1 22/30/1
f 22/30/1 23/31/1 24/32/1
f 22/30/2 20/33/2 19/34/2
f 19/34/2 23/31/2 22/30/2
f 23/31/3 19/34/3 18/26/3
f 18/26/3 24/32/3 23/31/3
f 24/32/4 18/26/4 17/25/4
f 17/25/4 21/29/4 24/32/4
f 28/35/2 25/35/2 26/36/2
f 26/36/2 27/36/2 28/35/2
f 27/36/3 26/36/3 29/37/3
f 29/37/3 30/37/3 27/36/3
f 30/37/4 29/37/4 31/38/4
f 31/38/4 32/38/4 30/37/4
f 36/42/5 33/39/5 34/40/5
f 34/40/5 35/41/5 36/42/5
f 40/46/1 37/43/1 38/44/1
f 38/44/1 39/45/1 40/46/1
f 39/45/3 35/41/3 34/40/3
f 34/40/3 40/46/3 39/45/3
f 44/50/5 41/47/5 42/48/5
f 42/48/5 43/49/5 44/50/5
f 48/54/1 45/51/1 46/52/1
f 46/52/1 47/53/1 48/54/1
f 47/53/3 43/49/3 42/48/3
f 42/48/3 48/54/3 47/53/3
f 52/55/2 49/55/2 50/56/2
f 50/56/2 51/56/2 52/55/2
f 51/56/3 50/56/3 53/57/3
f 53/57/3 54/57/3 51/56/3
f 54/57/4 53/57/4 55/58/4
f 55/58/4 56/58/4 54/57/4
f 60/62/5 57/59/5 58/60/5
f 58/60/5 59/61/5 60/62/5
f 64/66/1 61/63/1 62/64/1
f 62/64/1 63/65/1 64/66/1
f 63/65/3 59/61/3 58/60/3
f 58/60/3 64/66/3 63/65/3
