# File produced by Open Asset Import Library (http://www.assimp.sf.net)
# (assimp v3.1.243586452)

mtllib DOOR_FRAME.mtl

# vertex positions
v -7.650000 25.150000 60.250000
v 7.650000 25.150000 60.250000
v 7.650000 25.150000 59.750000
v -7.650000 25.150000 59.750000
v 7.650000 0.250000 60.250000
v 7.650000 0.250000 59.750000
v -7.650000 0.250000 59.750000
v -7.650000 0.250000 60.250000
v 7.250000 0.250000 60.650002
v 7.250000 24.750000 60.650002
v 7.000000 24.500000 60.650002
v 7.000000 0.250000 60.650002
v -7.250000 24.750000 60.650002
v -7.000000 24.500000 60.650002
v -7.250000 0.250000 60.650002
v -7.000000 0.250000 60.650002
v -7.250000 0.250000 59.349998
v -7.250000 24.750000 59.349998
v -7.000000 24.500000 59.349998
v -7.000000 0.250000 59.349998
v 7.250000 24.750000 59.349998
v 7.000000 24.500000 59.349998
v 7.250000 0.250000 59.349998
v 7.000000 0.250000 59.349998
v 6.750000 24.250000 59.500000
v 6.750000 24.250000 60.500000
v -6.750000 24.250000 60.500000
v -6.750000 24.250000 59.500000
v -6.750000 0.000001 60.500000
v -6.750000 0.000001 59.500000
v 6.750000 0.000001 59.500000
v 6.750000 0.000001 60.500000
v 7.500000 25.000000 60.500000
v -7.500000 25.000000 60.500000
v -7.500000 0.000001 60.500000
v 7.500000 0.000001 60.500000
v -7.500000 25.000000 59.500000
v 7.500000 25.000000 59.500000
v 7.500000 0.000001 59.500000
v -7.500000 0.000001 59.500000
v -7.750000 0.474133 60.766167
v 7.750000 0.474133 60.766167
v 7.750000 0.550748 60.000000
v -7.750000 0.550748 60.000000
v 7.750000 0.474133 59.233833
v -7.750000 0.474133 59.233833
v -8.000000 -0.100000 61.000000
v 8.000000 -0.100000 61.000000
v 8.000000 0.300000 61.000000
v -8.000000 0.300000 61.000000
v 8.000000 -0.100000 60.000000
v 8.000000 0.400000 60.000000
v 8.000000 -0.100000 59.000000
v 8.000000 0.300000 59.000000
v -8.000000 -0.100000 59.000000
v -8.000000 0.300000 59.000000
v -8.000000 -0.100000 60.000000
v -8.000000 0.400000 60.000000

# UV coordinates
vt 0.220217 0.777506
vt 0.746850 0.777506
vt 0.746850 0.794717
vt 0.220216 0.794717
vt 0.875326 0.035256
vt 0.894289 0.035319
vt 0.922779 0.887912
vt 0.905200 0.888522
vt 0.106171 0.035054
vt 0.125086 0.036415
vt 0.095112 0.888989
vt 0.077531 0.888394
vt 0.846826 0.038726
vt 0.874267 0.868909
vt 0.859187 0.854770
vt 0.833082 0.038686
vt 0.733082 0.757436
vt 0.233985 0.757436
vt 0.242590 0.748832
vt 0.724478 0.748832
vt 0.125710 0.869501
vt 0.153595 0.039239
vt 0.167282 0.039981
vt 0.140809 0.855356
vt 0.077500 0.036563
vt 0.048013 0.866707
vt 0.033936 0.851567
vt 0.063790 0.035582
vt 0.233984 0.814788
vt 0.733082 0.814788
vt 0.724477 0.823392
vt 0.242589 0.823393
vt 0.951970 0.866374
vt 0.922924 0.036183
vt 0.936629 0.035986
vt 0.966064 0.851229
vt 0.715873 0.704377
vt 0.715873 0.738797
vt 0.251195 0.738797
vt 0.251195 0.704376
vt 0.182097 0.024974
vt 0.215851 0.026067
vt 0.189347 0.844575
vt 0.155593 0.843482
vt 0.844402 0.842887
vt 0.810637 0.843966
vt 0.784463 0.025167
vt 0.818228 0.024088
vt 0.741687 0.767471
vt 0.225380 0.767471
vt 0.110531 0.881678
vt 0.139227 0.023653
vt 0.861061 0.022702
vt 0.889778 0.881210
vt 0.225380 0.804753
vt 0.741687 0.804753
vt 0.937661 0.879562
vt 0.907522 0.021619
vt 0.950381 0.020000
vt 0.980000 0.838372
vt 0.715872 0.833427
vt 0.251194 0.833428
vt 0.020000 0.838699
vt 0.049970 0.020000
vt 0.092798 0.021551
vt 0.062645 0.880042
vt 0.183525 0.880103
vt 0.772730 0.879920
vt 0.771318 0.909457
vt 0.184964 0.909432
vt 0.772758 0.938787
vt 0.183552 0.938970
vt 0.174013 0.853817
vt 0.782226 0.853629
vt 0.782231 0.868833
vt 0.174018 0.869022
vt 0.800413 0.870359
vt 0.801591 0.909444
vt 0.782327 0.909442
vt 0.784779 0.870830
vt 0.800315 0.948375
vt 0.784742 0.947865
vt 0.782270 0.965072
vt 0.174056 0.965261
vt 0.174051 0.950056
vt 0.782265 0.949867
vt 0.155868 0.948531
vt 0.154691 0.909444
vt 0.173955 0.909448
vt 0.171503 0.948060
vt 0.155968 0.870513
vt 0.171541 0.871024

# vertex normals
vn 0.000000 1.000000 0.000000
vn 1.000000 0.000000 0.000000
vn -1.000000 0.000000 0.000000
vn 0.000000 -0.000000 1.000000
vn 0.000000 0.000000 -1.000000
vn 0.000000 -1.000000 -0.000000
vn 0.000000 0.514496 0.857493
vn 0.000000 0.514496 0.857493
vn -0.514496 -0.000000 0.857493
vn -0.514496 -0.000000 0.857493
vn 0.000000 -0.514496 0.857493
vn 0.000000 -0.514496 0.857493
vn 0.514496 -0.000000 0.857493
vn 0.000000 -0.514496 0.857493
vn 0.514496 -0.000000 0.857493
vn 0.000000 0.514496 -0.857493
vn 0.000000 0.514496 -0.857493
vn 0.514496 0.000000 -0.857493
vn 0.514496 0.000000 -0.857493
vn 0.000000 -0.514496 -0.857493
vn 0.000000 -0.514496 -0.857493
vn -0.514496 0.000000 -0.857493
vn 0.000000 -0.514496 -0.857493
vn -0.514496 0.000000 -0.857493
vn -0.857493 -0.514496 -0.000000
vn -0.857493 -0.000000 0.514496
vn 0.000000 0.857493 0.514495
vn 0.857493 -0.000000 0.514496
vn 0.857493 -0.000000 0.514496
vn 0.857493 -0.514496 -0.000000
vn 0.857493 0.000000 -0.514496
vn 0.000000 0.857493 -0.514495
vn -0.857493 0.000000 -0.514496
vn -0.857493 0.000000 -0.514496
vn 0.000000 0.995037 0.099504
vn 0.000000 0.995037 -0.099504
vn 0.000000 0.802043 0.597266
vn 0.000000 0.802043 0.597266
vn 0.514496 0.853237 0.085324
vn 0.514496 0.853237 -0.085324
vn 0.514496 0.853237 -0.085324
vn 0.514496 0.853237 -0.085324
vn 0.000000 0.802043 -0.597266
vn 0.000000 0.802043 -0.597266
vn -0.514496 0.853237 -0.085324
vn -0.514496 0.853237 0.085324
vn -0.514496 0.853237 0.085324
vn -0.514496 0.853237 0.085324

# Mesh
g DOOR_FRAME
usemtl DefaultMaterial
f 4/4/1 1/1/1 2/2/1
f 2/2/1 3/3/1 4/4/1
f 2/8/2 5/5/2 6/6/2
f 6/6/2 3/7/2 2/8/2
f 4/12/3 7/9/3 8/10/3
f 8/10/3 1/11/3 4/12/3
f 12/16/4 9/13/4 10/14/4
f 10/14/4 11/15/4 12/16/4
f 11/20/4 10/17/4 13/18/4
f 13/18/4 14/19/4 11/20/4
f 14/24/4 13/21/4 15/22/4
f 15/22/4 16/23/4 14/24/4
f 20/28/5 17/25/5 18/26/5
f 18/26/5 19/27/5 20/28/5
f 19/32/5 18/29/5 21/30/5
f 21/30/5 22/31/5 19/32/5
f 22/36/5 21/33/5 23/34/5
f 23/34/5 24/35/5 22/36/5
f 28/40/6 25/37/6 26/38/6
f 26/38/6 27/39/6 28/40/6
f 27/44/2 29/41/2 30/42/2
f 30/42/2 28/43/2 27/44/2
f 32/48/3 26/45/3 25/46/3
f 25/46/3 31/47/3 32/48/3
f 10/17/8 33/49/7 34/50/7
f 34/50/7 13/18/8 10/17/8
f 13/21/10 34/51/9 35/52/9
f 35/52/9 15/22/10 13/21/10
f 15/22/12 35/52/11 29/41/11
f 29/41/11 16/23/12 15/22/12
f 16/23/13 29/41/13 27/44/13
f 27/44/13 14/24/13 16/23/13
f 14/19/14 27/39/12 26/38/12
f 26/38/12 11/20/14 14/19/14
f 11/15/10 26/45/10 32/48/10
f 32/48/10 12/16/10 11/15/10
f 12/16/12 32/48/11 36/53/11
f 36/53/11 9/13/12 12/16/12
f 9/13/13 36/53/15 33/54/15
f 33/54/15 10/14/13 9/13/13
f 18/29/17 37/55/16 38/56/16
f 38/56/16 21/30/17 18/29/17
f 21/33/19 38/57/18 39/58/18
f 39/58/18 23/34/19 21/33/19
f 23/34/21 39/58/20 31/59/20
f 31/59/20 24/35/21 23/34/21
f 24/35/22 31/59/22 25/60/22
f 25/60/22 22/36/22 24/35/22
f 22/31/23 25/61/21 28/62/21
f 28/62/21 19/32/23 22/31/23
f 19/27/19 28/63/19 30/64/19
f 30/64/19 20/28/19 19/27/19
f 20/28/21 30/64/20 40/65/20
f 40/65/20 17/25/21 20/28/21
f 17/25/22 40/65/24 37/66/24
f 37/66/24 18/26/22 17/25/22
f 7/9/25 40/65/25 35/52/25
f 35/52/25 8/10/25 7/9/25
f 8/10/26 35/52/26 34/51/26
f 34/51/26 1/11/26 8/10/26
f 1/1/27 34/50/27 33/49/27
f 33/49/27 2/2/27 1/1/27
f 2/8/28 33/54/28 36/53/29
f 36/53/29 5/5/28 2/8/28
f 5/5/30 36/53/30 39/58/30
f 39/58/30 6/6/30 5/5/30
f 6/6/31 39/58/31 38/57/31
f 38/57/31 3/7/31 6/6/31
f 3/3/32 38/56/32 37/55/32
f 37/55/32 4/4/32 3/3/32
f 4/12/33 37/66/33 40/65/34
f 40/65/34 7/9/33 4/12/33

# Mesh
g DOOR_BASE
usemtl DefaultMaterial
f 44/70/1 41/67/35 42/68/35
f 42/68/35 43/69/1 44/70/1
f 46/72/36 44/70/1 43/69/1
f 43/69/1 45/71/36 46/72/36
f 50/76/4 47/73/4 48/74/4
f 48/74/4 49/75/4 50/76/4
f 49/80/2 48/77/2 51/78/2
f 51/78/2 52/79/2 49/80/2
f 52/79/2 51/78/2 53/81/2
f 53/81/2 54/82/2 52/79/2
f 54/86/5 53/83/5 55/84/5
f 55/84/5 56/85/5 54/86/5
f 56/90/3 55/87/3 57/88/3
f 57/88/3 58/89/3 56/90/3
f 58/89/3 57/88/3 47/91/3
f 47/91/3 50/92/3 58/89/3
f 41/67/38 50/76/37 49/75/37
f 49/75/37 42/68/38 41/67/38
f 42/68/39 49/80/39 52/79/39
f 52/79/39 43/69/39 42/68/39
f 43/69/42 52/79/40 54/82/41
f 54/82/41 45/71/40 43/69/42
f 45/71/44 54/86/43 56/85/43
f 56/85/43 46/72/44 45/71/44
f 46/72/45 56/90/45 58/89/45
f 58/89/45 44/70/45 46/72/45
f 44/70/48 58/89/46 50/92/47
f 50/92/47 41/67/46 44/70/48
