# File produced by Open Asset Import Library (http://www.assimp.sf.net)
# (assimp v3.1.243586452)

mtllib TOPFLOOR.mtl

# vertex positions
v -0.199997 40.000000 70.199997
v 59.799999 40.000000 70.199997
v 59.799999 40.000000 -19.799999
v 22.082012 40.000000 -19.799999
v 7.805248 40.000000 -19.799999
v -0.199997 40.000000 -19.799999
v -0.199997 80.000000 69.982468
v 59.799999 80.000000 69.982468
v 59.799999 80.000000 -20.017529
v -0.199997 80.000000 -20.017529
v 22.152859 64.623833 -19.933910
v 7.586689 64.518372 -19.933334
v 59.899998 40.000000 -20.099998
v 89.899994 40.000000 -20.099998
v 89.899994 40.000000 -50.099998
v 22.269375 40.000000 -20.099998
v 7.667789 40.000000 -20.099998
v -20.100002 40.000000 -20.099998
v 6.979183 40.000000 -50.099998
v -7.379932 40.000000 -50.099998
v -20.100002 40.000000 -50.099998
v 89.899994 80.000000 -20.099998
v 89.899994 80.000000 -50.099998
v -20.100002 80.000000 -50.099998
v -20.100002 80.000000 -20.099998
v 6.996811 64.574127 -50.099998
v -7.130531 64.530075 -50.099998
v 7.725513 64.180603 -20.099998
v 22.094715 64.415009 -20.099998
v 59.899998 80.000000 -20.099998
v 7.183056 40.000000 -50.300003
v 59.900002 40.000000 -50.300003
v 59.900002 40.000000 -73.061676
v 59.900002 40.000000 -87.617142
v 59.900002 40.000000 -100.300003
v -7.250351 40.000000 -50.300003
v -20.099995 40.000000 -50.300003
v -20.099995 40.000000 -100.300003
v 59.900002 64.536194 -73.161980
v 59.900002 80.000000 -50.300003
v 59.900002 80.000000 -100.300003
v 59.900002 64.555771 -87.683716
v -20.099995 80.000000 -100.300003
v -20.099995 80.000000 -50.300003
v -7.230053 64.632561 -50.300003
v 7.063232 64.695541 -50.300003
v 59.999985 40.000000 -50.300003
v 99.999985 40.000000 -50.300003
v 99.999985 40.000000 -90.300003
v 59.999985 40.000000 -90.300003
v 59.999985 40.000000 -87.495216
v 59.999985 40.000000 -73.289932
v 59.999985 80.000000 -50.300003
v 99.999985 80.000000 -50.300003
v 99.999985 80.000000 -90.300003
v 59.999985 80.000000 -90.300003
v 59.999985 64.568558 -87.770111
v 59.999985 64.573235 -73.346878
v 59.899994 40.000000 80.199997
v 89.899994 40.000000 80.199997
v 89.899994 40.000000 66.897072
v 89.899994 40.000000 52.534626
v 89.899994 40.000000 -20.100002
v 59.899994 40.000000 -20.100002
v 59.899994 80.000000 79.982460
v 89.899994 80.000000 79.982460
v 59.899994 80.000000 -20.100002
v 89.899994 64.382584 52.416195
v 89.899994 80.000000 -20.100002
v 89.899994 64.213821 66.990700
v 90.000000 40.000000 79.999931
v 90.000000 80.000000 79.999931
v 120.000000 80.000000 79.999931
v 120.000000 40.000000 79.999931
v 120.000000 80.000000 39.999931
v 120.000000 40.000000 -0.000069
v 90.000000 80.000000 39.999931
v 90.000000 40.000000 -0.000069
v 90.000000 40.000000 52.499611
v 90.000000 40.000000 66.886635
v 90.000000 64.258102 67.005882
v 90.000000 64.265175 52.535225

# UV coordinates
vt 0.070826 0.533054
vt 0.147192 0.509596
vt 0.182379 0.624145
vt 0.134373 0.638891
vt 0.116202 0.644473
vt 0.106013 0.647603
vt 0.055187 0.482142
vt 0.131553 0.458684
vt 0.198188 0.494234
vt 0.233375 0.608783
vt 0.055187 0.663518
vt 0.020000 0.548969
vt 0.144090 0.670205
vt 0.198018 0.675057
vt 0.121652 0.698514
vt 0.125509 0.675765
vt 0.179776 0.339269
vt 0.219720 0.339270
vt 0.219720 0.379213
vt 0.129672 0.339269
vt 0.110231 0.339269
vt 0.073259 0.339269
vt 0.109314 0.379213
vt 0.090195 0.379213
vt 0.073259 0.379213
vt 0.272978 0.339270
vt 0.272978 0.379213
vt 0.020000 0.379214
vt 0.020000 0.339270
vt 0.109337 0.411933
vt 0.219720 0.432472
vt 0.073259 0.432472
vt 0.090527 0.411874
vt 0.110308 0.307074
vt 0.073259 0.286011
vt 0.129440 0.306762
vt 0.179776 0.286011
vt 0.618272 0.847956
vt 0.688463 0.847956
vt 0.688463 0.878263
vt 0.688463 0.897642
vt 0.688463 0.914529
vt 0.599054 0.847956
vt 0.581946 0.847956
vt 0.581946 0.914530
vt 0.721132 0.878396
vt 0.741721 0.847956
vt 0.741721 0.914529
vt 0.721158 0.897731
vt 0.688463 0.967788
vt 0.581946 0.967788
vt 0.528687 0.914530
vt 0.528687 0.847956
vt 0.599081 0.815159
vt 0.581945 0.794698
vt 0.618112 0.815075
vt 0.688463 0.794698
vt 0.670616 0.558611
vt 0.723875 0.558611
vt 0.723875 0.611870
vt 0.670616 0.611870
vt 0.670616 0.608135
vt 0.670616 0.589221
vt 0.670617 0.505353
vt 0.723874 0.505353
vt 0.777133 0.558611
vt 0.777133 0.611869
vt 0.723875 0.665128
vt 0.670616 0.665128
vt 0.637904 0.608501
vt 0.617357 0.611869
vt 0.637898 0.589297
vt 0.617357 0.558611
vt 0.857290 0.661283
vt 0.897234 0.661283
vt 0.897234 0.678995
vt 0.897234 0.698118
vt 0.897234 0.794829
vt 0.857290 0.794829
vt 0.857290 0.608023
vt 0.897234 0.608024
vt 0.804031 0.794829
vt 0.804031 0.661572
vt 0.950492 0.661573
vt 0.929698 0.698276
vt 0.950493 0.794829
vt 0.929474 0.678871
vt 0.734028 0.235000
vt 0.771688 0.197340
vt 0.799933 0.225585
vt 0.762273 0.263245
vt 0.837592 0.263245
vt 0.837592 0.338564
vt 0.877536 0.263245
vt 0.877536 0.338564
vt 0.926964 0.289136
vt 0.952855 0.263245
vt 0.940509 0.275591
vt 0.917782 0.252640
vt 0.915195 0.225585
vt 0.904152 0.266257

# vertex normals
vn 0.000000 1.000000 0.000000
vn 0.000000 -0.005438 -0.999985
vn -1.000000 0.000000 0.000000
vn 1.000000 0.000000 0.000000
vn 0.000000 0.005438 0.999985
vn 0.000000 0.005438 0.999985
vn -0.000000 0.005438 0.999985
vn -0.000000 0.005438 0.999985
vn -0.000000 0.005438 0.999985
vn -0.000000 0.005438 0.999985
vn 0.000000 0.005438 0.999985
vn -0.000000 0.005438 0.999985
vn 0.000000 -0.000000 1.000000
vn 0.000000 0.000000 -1.000000
vn 0.000000 -0.707107 0.707107

# Mesh
g UPSTAIRS_WALLS
usemtl DefaultMaterial
f 1/1/1 2/2/1 3/3/1
f 1/1/1 3/3/1 4/4/1
f 1/1/1 4/4/1 5/5/1
f 1/1/1 5/5/1 6/6/1
f 1/1/2 7/7/2 8/8/2
f 8/8/2 2/2/2 1/1/2
f 2/2/3 8/9/3 9/10/3
f 9/10/3 3/3/3 2/2/3
f 6/6/4 10/11/4 7/12/4
f 7/12/4 1/1/4 6/6/4
f 11/13/5 4/4/6 3/3/7
f 11/13/5 3/3/7 9/14/8
f 11/13/5 9/14/8 10/15/9
f 6/6/10 5/5/11 12/16/12
f 10/15/9 6/6/10 12/16/12
f 11/13/5 10/15/9 12/16/12

# Mesh
g UPSTAIRS_WALLS
usemtl DefaultMaterial
f 13/17/1 14/18/1 15/19/1
f 16/20/1 13/17/1 15/19/1
f 17/21/1 16/20/1 15/19/1
f 18/22/1 17/21/1 15/19/1
f 18/22/1 15/19/1 19/23/1
f 18/22/1 19/23/1 20/24/1
f 18/22/1 20/24/1 21/25/1
f 14/18/3 22/26/3 23/27/3
f 23/27/3 15/19/3 14/18/3
f 21/25/4 24/28/4 25/29/4
f 25/29/4 18/22/4 21/25/4
f 26/30/13 19/23/13 15/19/13
f 26/30/13 15/19/13 23/31/13
f 26/30/13 23/31/13 24/32/13
f 21/25/13 20/24/13 27/33/13
f 24/32/13 21/25/13 27/33/13
f 26/30/13 24/32/13 27/33/13
f 28/34/14 17/21/14 18/22/14
f 28/34/14 18/22/14 25/35/14
f 29/36/14 28/34/14 25/35/14
f 29/36/14 25/35/14 30/37/14
f 16/20/14 29/36/14 30/37/14
f 13/17/14 16/20/14 30/37/14

# Mesh
g UPSTAIRS_WALLS
usemtl DefaultMaterial
f 31/38/1 32/39/1 33/40/1
f 31/38/1 33/40/1 34/41/1
f 31/38/1 34/41/1 35/42/1
f 36/43/1 31/38/1 35/42/1
f 37/44/1 36/43/1 35/42/1
f 37/44/1 35/42/1 38/45/1
f 39/46/3 33/40/3 32/39/3
f 39/46/3 32/39/3 40/47/3
f 39/46/3 40/47/3 41/48/3
f 42/49/3 39/46/3 41/48/3
f 42/49/3 41/48/3 35/42/3
f 42/49/3 35/42/3 34/41/3
f 35/42/13 41/50/13 43/51/13
f 43/51/13 38/45/13 35/42/13
f 38/45/4 43/52/4 44/53/4
f 44/53/4 37/44/4 38/45/4
f 45/54/14 36/43/14 37/44/14
f 45/54/14 37/44/14 44/55/14
f 32/39/14 31/38/14 46/56/14
f 40/57/14 32/39/14 46/56/14
f 44/55/14 40/57/14 46/56/14
f 45/54/14 44/55/14 46/56/14

# Mesh
g UPSTAIRS_WALLS
usemtl DefaultMaterial
f 47/58/1 48/59/1 49/60/1
f 49/60/1 50/61/1 51/62/1
f 49/60/1 51/62/1 52/63/1
f 47/58/1 49/60/1 52/63/1
f 47/58/14 53/64/14 54/65/14
f 54/65/14 48/59/14 47/58/14
f 48/59/3 54/66/3 55/67/3
f 55/67/3 49/60/3 48/59/3
f 49/60/13 55/68/13 56/69/13
f 56/69/13 50/61/13 49/60/13
f 57/70/4 51/62/4 50/61/4
f 57/70/4 50/61/4 56/71/4
f 47/58/4 52/63/4 58/72/4
f 53/73/4 47/58/4 58/72/4
f 56/71/4 53/73/4 58/72/4
f 57/70/4 56/71/4 58/72/4

# Mesh
g UPSTAIRS_WALLS
usemtl DefaultMaterial
f 59/74/1 60/75/1 61/76/1
f 59/74/1 61/76/1 62/77/1
f 59/74/1 62/77/1 63/78/1
f 59/74/1 63/78/1 64/79/1
f 59/74/2 65/80/2 66/81/2
f 66/81/2 60/75/2 59/74/2
f 64/79/4 67/82/4 65/83/4
f 65/83/4 59/74/4 64/79/4
f 61/76/3 60/75/3 66/84/3
f 63/78/3 62/77/3 68/85/3
f 69/86/3 63/78/3 68/85/3
f 69/86/3 68/85/3 70/87/3
f 66/84/3 69/86/3 70/87/3
f 61/76/3 66/84/3 70/87/3

# Mesh
g UPSTAIRS_WALLS
usemtl DefaultMaterial
f 71/88/14 72/89/14 73/90/14
f 73/90/14 74/91/14 71/88/14
f 74/91/3 73/90/3 75/92/3
f 75/92/3 76/93/3 74/91/3
f 75/92/15 77/94/15 78/95/15
f 78/95/15 76/93/15 75/92/15
f 79/96/4 78/95/4 77/94/4
f 71/97/4 80/98/4 81/99/4
f 72/100/4 71/97/4 81/99/4
f 72/100/4 81/99/4 82/101/4
f 77/94/4 72/100/4 82/101/4
f 79/96/4 77/94/4 82/101/4
